<?xml version="1.0" encoding="utf-8"?>
<!-- Generator: Adobe Illustrator 24.1.0, SVG Export Plug-In . SVG Version: 6.00 Build 0)  -->
<svg version="1.1" id="Layer_1" xmlns="http://www.w3.org/2000/svg" xmlns:xlink="http://www.w3.org/1999/xlink" x="0px" y="0px"
	 viewBox="0 0 125 110.53" style="enable-background:new 0 0 125 110.53;" xml:space="preserve">
<style type="text/css">
	.st0{fill:#5E21D8;}
</style>
<g>
	<g>
		<g>
			<path class="st0" d="M77.14,74.92c0-0.01,0.03-0.06,0.06-0.13C77.15,74.81,77.13,74.85,77.14,74.92z"/>
			<path class="st0" d="M42.53,84.51c0.26,0.02,0.25-0.01-0.04-0.07C42.5,84.46,42.52,84.49,42.53,84.51z"/>
			<path class="st0" d="M124.98,6.93c-0.14-1.33-0.28-2.67-0.42-4c-0.32-3.06-5.1-4.33-5.82-0.79c-2.84,13.83-5.88,27.62-9.07,41.38
				c-0.23-3.12-0.55-6.24-0.99-9.35c-0.43-3.03-5-2.6-5.72,0c-1.13,4.08-2.46,8.09-3.87,12.07c1.18-9.28,2.32-18.56,3.24-27.87
				c0.38-3.79-5.56-3.77-5.93,0c-1.83,18.53-4.56,36.95-6.64,55.45c-0.38,3.38,4.95,3.92,5.82,0.79c2.34-8.45,5.56-16.61,8.53-24.85
				c0.2,6.85-0.1,13.72-0.75,20.55c-0.32,3.35,5.04,3.99,5.82,0.79c5.01-20.41,9.74-40.88,14.04-61.44
				C124.31,9.33,125.14,8.43,124.98,6.93z"/>
			<path class="st0" d="M29.01,34.2c-2.13,7.75-4.71,15.35-7.23,22.98c0.02-5.95,0.1-11.91-0.05-17.86
				c-0.08-3.26-5.01-4.12-5.82-0.79c-5.08,20.7-9.79,41.49-14.13,62.36c-1.08,0.31-1.91,1.21-1.75,2.71c0.14,1.33,0.28,2.67,0.42,4
				c0.32,3.06,5.1,4.33,5.82,0.79c3.02-14.73,6.22-29.43,9.6-44.08c0.04,3.76,0.12,7.52,0.35,11.27c0.19,3.25,4.9,4.14,5.82,0.79
				c1.11-4.03,2.34-8.01,3.62-11.99c-0.93,8.68-1.83,17.35-2.68,26.04c-0.37,3.79,5.56,3.77,5.93,0
				c1.81-18.49,3.83-36.97,5.92-55.43C35.21,31.61,29.87,31.06,29.01,34.2z"/>
			<path class="st0" d="M79.03,7.97c0.69-3.73-5.02-5.33-5.72-1.58c-4.54,24.45-8.53,49.51-9.72,74.38c-0.16,3.35,4.99,4,5.82,0.79
				c0.16-0.62,0.32-1.23,0.48-1.85c0.21-0.8,0.1-1.5-0.2-2.07C71.03,54.33,74.78,30.89,79.03,7.97z"/>
			<path class="st0" d="M68.05,13.42c0.69-3.73-5.02-5.33-5.72-1.58c-4.38,23.59-8.07,47.73-9.23,71.72c-0.16,3.35,4.99,4,5.82,0.79
				c0.16-0.62,0.32-1.24,0.48-1.86c0.21-0.8,0.1-1.5-0.2-2.07C60.49,57.99,63.96,35.48,68.05,13.42z"/>
			<path class="st0" d="M91.4,30.4c-0.09-2.21-0.51-4.94-2.93-5.75c-0.79-0.26-1.52-0.24-2.18-0.03c0.06-0.32,0.13-0.65,0.19-0.97
				c0.75-3.73-4.96-5.32-5.72-1.58c-2.52,12.45-4.51,25.02-5.81,37.66c-0.45,4.39-0.93,8.85-0.77,13.27
				c0.09,2.59,0.31,6.52,3.42,7.3c5.23,1.31,7.17-8.06,8.05-11.35c2.22-8.23,3.59-16.71,4.66-25.15
				C90.88,39.43,91.58,34.83,91.4,30.4z M77.2,74.79c-0.04,0.07-0.07,0.12-0.06,0.13C77.13,74.85,77.15,74.81,77.2,74.79z
				 M85.93,36.47c-0.03,1.28-0.22,2.55-0.3,3.84c-0.29,4.69-0.98,9.32-1.9,13.92c-0.99,4.89-3.01,16.08-3.9,15.2
				c-1.16-1.16,1-22.3,4.19-34.68c0.08-0.32,0.49-1.55,0.8-1.69c0.35-0.16,0.67-0.03,0.82,0.32C85.96,34.15,85.94,36.35,85.93,36.47
				z"/>
			<path class="st0" d="M45.28,59.56c0.43,5.83-0.27,11.46-1.47,17.15c-0.43,2.01-0.91,3.99-1.79,5.84
				c-0.27-1.01-0.73-2.11-0.85-2.95c-0.18-1.18-0.29-2.37-0.36-3.56c-0.29-5.19-0.14-10.49,0.31-15.67
				c0.11-1.34,0.27-2.68,0.46-4.01c0.56-3.22,1.57-6.34,3.69-8.89c3.49-4.21,9.43-4.76,10.94-10.74c1.13-4.47-1.4-9.75-6.62-9.15
				c-5.19,0.59-7.88,6.78-9.52,11c-2.72,7.02-4.27,14.48-4.94,22.02c-0.01,0.07-0.01,0.13-0.02,0.2c-0.04,0.48-0.08,0.96-0.12,1.44
				c-0.01,0.08-0.01,0.16-0.02,0.25c0,0.01,0,0.03,0,0.04c-0.31,4.47-0.32,8.95-0.09,13.38c0.22,4.22,0.87,15.29,7.48,14.06
				c4.49-0.84,6.14-7.12,6.99-10.83c1.47-6.43,2.36-12.96,1.87-19.56C50.93,55.77,45,55.74,45.28,59.56z M48.97,34.44
				c1.39-0.95,1.97-0.63,1.41,1.11c-0.46,1.45-1.6,2.21-2.82,2.98c-0.57,0.36-1.13,0.72-1.66,1.07
				C46.61,37.62,47.54,35.43,48.97,34.44z M42.53,84.51c-0.01-0.02-0.03-0.05-0.04-0.07C42.78,84.5,42.8,84.53,42.53,84.51z"/>
			<path class="st0" d="M45.41,24.23c4.49,2.6,9.9-0.79,11.67-5.08c0.61-1.48-0.66-3.26-2.07-3.65c-1.7-0.47-3.03,0.58-3.65,2.07
				c-0.15,0.36-0.99,1.08-1.53,1.33c-0.11,0.05-1.09,0.3-0.86,0.28c-0.15,0.02-0.3,0-0.46,0c-0.03-0.02-0.07-0.04-0.11-0.06
				C45.09,17.2,42.1,22.32,45.41,24.23z"/>
		</g>
	</g>
</g>
</svg>
