<?xml version="1.0" encoding="utf-8"?>
<!-- Generator: Adobe Illustrator 24.1.0, SVG Export Plug-In . SVG Version: 6.00 Build 0)  -->
<svg version="1.1" id="Layer_1" xmlns="http://www.w3.org/2000/svg" xmlns:xlink="http://www.w3.org/1999/xlink" x="0px" y="0px"
	 viewBox="0 0 20.13 20.13" style="enable-background:new 0 0 20.13 20.13;" xml:space="preserve">
<style type="text/css">
	.st0{fill:#FFFFFF;}
</style>
<g>
	<path class="st0" d="M10.07,4.83c-2.86,0-5.18,2.32-5.18,5.18s2.32,5.18,5.18,5.18s5.18-2.32,5.18-5.18S12.92,4.83,10.07,4.83z
		 M10.07,13.33c-1.83,0-3.33-1.49-3.33-3.33s1.49-3.33,3.33-3.33s3.33,1.49,3.33,3.33S11.9,13.33,10.07,13.33z"/>
	<circle class="st0" cx="15.44" cy="4.7" r="1.18"/>
	<path class="st0" d="M18.51,1.65C17.44,0.57,15.96,0,14.25,0H5.89C2.37,0,0,2.37,0,5.89v8.31c0,1.76,0.59,3.26,1.69,4.33
		c1.08,1.04,2.54,1.6,4.24,1.6h8.27c1.73,0,3.21-0.55,4.27-1.59c1.09-1.06,1.66-2.54,1.66-4.29V5.89
		C20.13,4.18,19.57,2.72,18.51,1.65z M18.28,14.25c0,1.24-0.38,2.26-1.1,2.97c-0.71,0.7-1.74,1.07-2.98,1.07H5.93
		c-1.2,0-2.22-0.37-2.95-1.07c-0.74-0.72-1.13-1.76-1.13-3.01V5.89c0-1.23,0.38-2.25,1.09-2.96c0.71-0.7,1.73-1.07,2.95-1.07h8.36
		c1.21,0,2.23,0.38,2.95,1.1c0.71,0.72,1.09,1.73,1.09,2.93V14.25z"/>
</g>
</svg>
