<?xml version="1.0" encoding="utf-8"?>
<!-- Generator: Adobe Illustrator 24.1.0, SVG Export Plug-In . SVG Version: 6.00 Build 0)  -->
<svg version="1.1" id="Layer_1" xmlns="http://www.w3.org/2000/svg" xmlns:xlink="http://www.w3.org/1999/xlink" x="0px" y="0px"
	 viewBox="0 0 22 20" style="enable-background:new 0 0 22 20;" xml:space="preserve">
<style type="text/css">
	.st0{fill:#FFFFFF;}
</style>
<path class="st0" d="M18.77-0.15c-3.04-0.12-5.1,1.73-6.18,5.51c0.56-0.26,1.1-0.38,1.62-0.38c1.11,0,1.61,0.67,1.48,2.01
	c-0.07,0.81-0.56,1.99-1.47,3.54c-0.92,1.55-1.61,2.33-2.07,2.33c-1.39,0-2.23-7.05-2.51-8.97C9.24,1.22,8.19-0.03,6.48,0.14
	C4.91,0.3,2.18,3.28,0.03,5.31l1.03,1.42c0.98-0.74,1.56-1.11,1.72-1.11c1.71,0,2.54,6.16,3.87,10.74c0.89,2.53,1.96,3.79,3.25,3.79
	c2.07,0,4.59-2.07,7.58-6.22c2.88-3.97,4.38-7.11,4.47-9.39l0.01-0.01C22.08,1.47,21.03-0.09,18.77-0.15L18.77-0.15z"/>
</svg>
