<?xml version="1.0" encoding="utf-8"?>
<!-- Generator: Adobe Illustrator 23.0.4, SVG Export Plug-In . SVG Version: 6.00 Build 0)  -->
<svg version="1.1" id="Layer_1" xmlns="http://www.w3.org/2000/svg" xmlns:xlink="http://www.w3.org/1999/xlink" x="0px" y="0px"
	 viewBox="0 0 125 110.5" style="enable-background:new 0 0 125 110.5;" xml:space="preserve">
<g>
	<g>
		<g>
			<path d="M77.1,74.9c0,0,0-0.1,0.1-0.1C77.2,74.8,77.1,74.8,77.1,74.9z"/>
			<path d="M42.5,84.5C42.8,84.5,42.8,84.5,42.5,84.5C42.5,84.5,42.5,84.5,42.5,84.5z"/>
			<path d="M125,6.9c-0.1-1.3-0.3-2.7-0.4-4c-0.3-3.1-5.1-4.3-5.8-0.8c-2.8,13.8-5.9,27.6-9.1,41.4c-0.2-3.1-0.6-6.2-1-9.4
				c-0.4-3-5-2.6-5.7,0c-1.1,4.1-2.5,8.1-3.9,12.1c1.2-9.3,2.3-18.6,3.2-27.9c0.4-3.8-5.6-3.8-5.9,0c-1.8,18.5-4.6,37-6.6,55.5
				c-0.4,3.4,4.9,3.9,5.8,0.8c2.3-8.4,5.6-16.6,8.5-24.8c0.2,6.8-0.1,13.7-0.8,20.5c-0.3,3.3,5,4,5.8,0.8c5-20.4,9.7-40.9,14-61.4
				C124.3,9.3,125.1,8.4,125,6.9z"/>
			<path d="M29,34.2c-2.1,7.8-4.7,15.4-7.2,23c0-6,0.1-11.9,0-17.9c-0.1-3.3-5-4.1-5.8-0.8C10.8,59.2,6.1,80,1.8,100.9
				c-1.1,0.3-1.9,1.2-1.8,2.7c0.1,1.3,0.3,2.7,0.4,4c0.3,3.1,5.1,4.3,5.8,0.8c3-14.7,6.2-29.4,9.6-44.1c0,3.8,0.1,7.5,0.4,11.3
				c0.2,3.2,4.9,4.1,5.8,0.8c1.1-4,2.3-8,3.6-12c-0.9,8.7-1.8,17.3-2.7,26c-0.4,3.8,5.6,3.8,5.9,0c1.8-18.5,3.8-37,5.9-55.4
				C35.2,31.6,29.9,31.1,29,34.2z"/>
			<path d="M79,8c0.7-3.7-5-5.3-5.7-1.6c-4.5,24.5-8.5,49.5-9.7,74.4c-0.2,3.3,5,4,5.8,0.8c0.2-0.6,0.3-1.2,0.5-1.8
				c0.2-0.8,0.1-1.5-0.2-2.1C71,54.3,74.8,30.9,79,8z"/>
			<path d="M68.1,13.4c0.7-3.7-5-5.3-5.7-1.6c-4.4,23.6-8.1,47.7-9.2,71.7c-0.2,3.3,5,4,5.8,0.8c0.2-0.6,0.3-1.2,0.5-1.9
				c0.2-0.8,0.1-1.5-0.2-2.1C60.5,58,64,35.5,68.1,13.4z"/>
			<path d="M91.4,30.4c-0.1-2.2-0.5-4.9-2.9-5.8c-0.8-0.3-1.5-0.2-2.2,0c0.1-0.3,0.1-0.6,0.2-1c0.8-3.7-5-5.3-5.7-1.6
				c-2.5,12.5-4.5,25-5.8,37.7c-0.4,4.4-0.9,8.9-0.8,13.3c0.1,2.6,0.3,6.5,3.4,7.3c5.2,1.3,7.2-8.1,8.1-11.3
				c2.2-8.2,3.6-16.7,4.7-25.2C90.9,39.4,91.6,34.8,91.4,30.4z M77.2,74.8c0,0.1-0.1,0.1-0.1,0.1C77.1,74.8,77.2,74.8,77.2,74.8z
				 M85.9,36.5c0,1.3-0.2,2.5-0.3,3.8c-0.3,4.7-1,9.3-1.9,13.9c-1,4.9-3,16.1-3.9,15.2c-1.2-1.2,1-22.3,4.2-34.7
				c0.1-0.3,0.5-1.5,0.8-1.7c0.3-0.2,0.7,0,0.8,0.3C86,34.2,85.9,36.3,85.9,36.5z"/>
			<path d="M45.3,59.6c0.4,5.8-0.3,11.5-1.5,17.1c-0.4,2-0.9,4-1.8,5.8c-0.3-1-0.7-2.1-0.8-2.9c-0.2-1.2-0.3-2.4-0.4-3.6
				c-0.3-5.2-0.1-10.5,0.3-15.7c0.1-1.3,0.3-2.7,0.5-4c0.6-3.2,1.6-6.3,3.7-8.9c3.5-4.2,9.4-4.8,10.9-10.7c1.1-4.5-1.4-9.8-6.6-9.1
				c-5.2,0.6-7.9,6.8-9.5,11c-2.7,7-4.3,14.5-4.9,22c0,0.1,0,0.1,0,0.2c0,0.5-0.1,1-0.1,1.4c0,0.1,0,0.2,0,0.2c0,0,0,0,0,0
				c-0.3,4.5-0.3,9-0.1,13.4c0.2,4.2,0.9,15.3,7.5,14.1c4.5-0.8,6.1-7.1,7-10.8c1.5-6.4,2.4-13,1.9-19.6
				C50.9,55.8,45,55.7,45.3,59.6z M49,34.4c1.4-1,2-0.6,1.4,1.1c-0.5,1.5-1.6,2.2-2.8,3c-0.6,0.4-1.1,0.7-1.7,1.1
				C46.6,37.6,47.5,35.4,49,34.4z M42.5,84.5C42.5,84.5,42.5,84.5,42.5,84.5C42.8,84.5,42.8,84.5,42.5,84.5z"/>
			<path d="M45.4,24.2c4.5,2.6,9.9-0.8,11.7-5.1c0.6-1.5-0.7-3.3-2.1-3.6c-1.7-0.5-3,0.6-3.7,2.1c-0.2,0.4-1,1.1-1.5,1.3
				c-0.1,0-1.1,0.3-0.9,0.3c-0.2,0-0.3,0-0.5,0c0,0-0.1,0-0.1-0.1C45.1,17.2,42.1,22.3,45.4,24.2z"/>
		</g>
	</g>
</g>
</svg>
